# xmcd CD database file
#
# Track frame offsets:
#	180
#	14982
#	33236
#	51355
#	74751
#	92030
#	118141
#	139841
#	173013
#	194015
#	216508
#
# Disc length: 3148 seconds
#
# Revision: 1
# Processed by: cddbd v1.5.2PL0 Copyright (c) Steve Scherf et al.
# Submitted via: CDex 1.51
#
DISCID=b30c4a0b
DTITLE=רוני פיטרסון - Mind Over Matter
DYEAR=1994
DGENRE=Jazz
TTITLE0=Tobacco Road
TTITLE1=You Can't Lose What You Never Had
TTITLE2=The High Cost of Lovin'
TTITLE3=Jonny
TTITLE4=Poogie's Boogie
TTITLE5=Stone Free
TTITLE6=Mind Over Matter
TTITLE7=Don't Do This To Me
TTITLE8=Daddy Told Me
TTITLE9=Burnin' Fire
TTITLE10=Goin' Down
EXTD=YEAR: 1994
EXTT0=
EXTT1=
EXTT2=
EXTT3=
EXTT4=
EXTT5=
EXTT6=
EXTT7=
EXTT8=
EXTT9=
EXTT10=
PLAYORDER=
